<?xml version="1.0" encoding="UTF-8"?>
<svg width="40px" height="40px" viewBox="0 0 40 40" version="1.1" xmlns="http://www.w3.org/2000/svg" xmlns:xlink="http://www.w3.org/1999/xlink">
    <title>编组 5</title>
    <g id="个人信息" stroke="none" stroke-width="1" fill="none" fill-rule="evenodd">
        <g id="个人设置" transform="translate(-294.000000, -211.000000)">
            <g id="编组-6" transform="translate(278.000000, 196.000000)">
                <g id="编组-5" transform="translate(16.000000, 15.000000)">
                    <rect id="矩形" x="0" y="0" width="40" height="40"></rect>
                    <g id="Group" transform="translate(4.176235, 1.206883)">
                        <path d="M27.5669653,11.1571256 C28.2883425,12.0882582 29.281996,13.7243025 29.6334974,16.0082261 C30.2088333,19.7482674 28.7703742,22.6254241 26.1810048,23.20076 C23.5918739,23.7760959 21.5776017,22.0500883 21.0022658,19.7482674 C20.4269299,17.4466852 20.7147172,14.2819798 22.7287508,9.96636403 C24.7282279,5.68177009 24.5401878,3.13320627 23.1294098,0 C23.280701,0.41712449 23.724552,2.84446449 16.9744373,8.81545361 C13.1912041,12.162472 9.89119572,14.7518415 7.86618518,18.0046011 C7.52589941,18.0979053 7.16890957,18.1504038 6.79879511,18.1504038 C4.57476751,18.1504038 2.7719211,16.3475574 2.7719211,14.1235298 C2.7719211,13.3269843 3.00625534,12.5867554 3.40524398,11.9617845 C1.27475917,14.6571055 0,18.0597246 0,21.762301 C0,30.5016318 7.08443471,37.5860665 15.8237655,37.5860665 C15.8788889,37.5860665 15.9287625,37.5815325 15.9822155,37.5801007 C15.9967719,37.5803394 16.011567,37.5808166 16.0261234,37.5810553 C24.6716727,37.4720015 31.647531,30.4336223 31.647531,21.762301 C31.647531,17.6822126 30.1028818,13.9634093 27.5669653,11.1571256" id="Fill-1" fill="#FF8A2B" opacity="0.2"></path>
                        <path d="M19.0564564,7.67544856 C19.0564564,7.67544856 16.5245967,9.25780125 17.4738651,11.789661 C17.9320339,13.0114444 19.0564564,13.3720137 18.739795,13.6884365 C18.4777797,13.9504518 15.8325709,14.4289041 14.9284035,14.5859223 C14.9866291,14.5878313 15.0446161,14.5897404 15.1030803,14.5911722 L15.3219036,14.5911722 L16.6143214,14.5911722 L17.9408632,14.5911722 C18.4899498,14.5606276 19.0848533,14.5035951 19.9546581,14.4069501 C19.9546581,14.4069501 20.0128837,14.5637298 20.0744502,14.817393 C20.5113809,14.6794651 20.8590642,14.5136176 20.9552319,14.3215207 C21.975612,12.2802834 17.1574423,11.789661 19.0564564,7.67544856" id="Fill-4" fill="#FF8A2B"></path>
                        <path d="M19.9545865,14.4069501 C19.0847818,14.5035951 18.4898782,14.5606276 17.9410302,14.5911722 L16.6142498,14.5911722 L15.321832,14.5911722 L15.1030087,14.5911722 C12.6353403,14.5310375 10.261692,14.0542556 10.261692,14.0542556 C9.37136506,13.8390118 7.90737264,13.3982629 8.06105009,12.8601533 C8.69413434,10.6447163 15.3399679,12.227069 12.3468372,5.26457401 C12.3468372,5.26457401 13.1247696,9.37902507 9.01055715,10.0118707 C4.98392177,10.6313531 4.84336895,13.1255093 6.27252145,14.5549005 C7.1492465,15.4313869 8.02453976,15.9036348 8.57124011,16.1386849 C8.57577407,16.1878426 8.57816037,16.2379548 8.57816037,16.2890216 C8.57816037,16.6973168 8.42305115,17.0531134 8.18800102,17.2690732 C5.65160731,19.5892685 4.0601867,22.9255486 4.0601867,26.6338521 C4.0601867,29.8801688 5.28077696,32.8403686 7.28598124,35.0844411 C7.12132684,34.2229883 7.03207938,33.3343318 7.03207938,32.4246759 C7.03207938,26.7753594 10.3578597,21.9049299 15.1571776,19.6582325 C15.1598026,19.5763825 15.1598026,19.5732803 15.1571776,19.6582325 C15.5824155,19.4911918 16.0348572,19.3143673 16.5032871,19.1454175 C16.8285392,19.0814648 17.1819496,19.0134554 17.5682908,18.940912 C21.386364,18.2250233 19.9545865,14.4069501 19.9545865,14.4069501" id="Fill-6" fill="#1E2A3A"></path>
                        <path d="M16.6076875,22.9918876 C16.576427,22.993558 16.5454052,22.9957057 16.5139061,22.9966602 C16.2442547,22.9379573 15.9726942,22.8833111 15.6989861,22.8353466 C14.9740294,22.525844 14.4659871,21.8070918 14.4659871,20.9692633 C14.4659871,20.5418778 14.5998583,20.1469458 14.8258405,19.8205006 C10.205972,22.1332984 7.03196006,26.9066057 7.03196006,32.4246759 C7.03196006,33.0947477 7.08111775,33.7533653 7.17251288,34.3981424 C7.20808993,34.6453639 7.23273148,34.8141308 7.28598124,35.0844411 C7.31373095,35.1024595 7.33750283,35.118105 7.35729687,35.1313775 C9.80611353,36.6860491 12.7084803,37.5862335 15.8237893,37.5862335 C21.1597852,37.5862335 25.8755828,34.9419792 28.7420012,30.895299 C25.8202207,26.9717516 21.5451719,24.1155942 16.6081647,23.0171823 C16.6079261,23.0085917 16.6076875,23.0002396 16.6076875,22.9918876 Z" id="Fill-8" fill="#FF8A2B"></path>
                    </g>
                </g>
            </g>
        </g>
    </g>
</svg>